<svg xmlns="http://www.w3.org/2000/svg" width="1000" height="420" viewBox="0 0 1000 420" role="img" aria-labelledby="title desc">
<title id="title">Storm's system profile</title><desc id="desc">Decorative animated server rack beside Storm's interests: SALFAST, apps, websites, Linux, Debian, Proxmox, Docker, LXC, AI agents, automation, food, design and Minecraft. Based in Copenhagen.</desc>
<style>.led{animation:blink 3s ease-in-out infinite}.led1{animation-delay:1.5s}.cursor{animation:blink 1.5s steps(2,end) infinite}@keyframes blink{0%,100%{opacity:1}50%{opacity:.25}}@media(prefers-reduced-motion:reduce){.led,.cursor{animation:none}}</style>
<rect x="1" y="1" width="998" height="418" rx="16" fill="#0b1117" stroke="#283a46"/>
<path d="M1 49H999" stroke="#283a46"/><circle cx="24" cy="25" r="5" fill="#ff6b6b"/><circle cx="43" cy="25" r="5" fill="#f6c85f"/><circle cx="62" cy="25" r="5" fill="#62f5be"/>
<g font-family="monospace"><text x="86" y="30" font-size="13" fill="#93a9b6">storm@copenhagen ~ system profile</text>
<rect x="43" y="103" width="234" height="237" rx="10" fill="none" stroke="#283a46" stroke-width="2"/>
<text x="59" y="124" fill="#93a9b6" font-size="10" letter-spacing="2">THE EVER-GROWING HOMELAB</text><rect x="56" y="137" width="208" height="34" rx="5" fill="#111c25" stroke="#283a46"/><circle class="led led0" cx="75" cy="154" r="4" fill="#62f5be"/><rect x="96" y="149" width="11" height="10" rx="2" fill="#283a46"/><rect x="113" y="149" width="11" height="10" rx="2" fill="#283a46"/><rect x="130" y="149" width="11" height="10" rx="2" fill="#283a46"/><rect x="147" y="149" width="11" height="10" rx="2" fill="#283a46"/><rect x="164" y="149" width="11" height="10" rx="2" fill="#283a46"/><rect x="181" y="149" width="11" height="10" rx="2" fill="#283a46"/><rect x="198" y="149" width="11" height="10" rx="2" fill="#283a46"/><path d="M239 147v14M245 147v14" stroke="#93a9b6" opacity=".6"/><rect x="56" y="182" width="208" height="34" rx="5" fill="#111c25" stroke="#283a46"/><circle class="led led1" cx="75" cy="199" r="4" fill="#62f5be"/><rect x="96" y="194" width="11" height="10" rx="2" fill="#283a46"/><rect x="113" y="194" width="11" height="10" rx="2" fill="#283a46"/><rect x="130" y="194" width="11" height="10" rx="2" fill="#283a46"/><rect x="147" y="194" width="11" height="10" rx="2" fill="#283a46"/><rect x="164" y="194" width="11" height="10" rx="2" fill="#283a46"/><rect x="181" y="194" width="11" height="10" rx="2" fill="#283a46"/><rect x="198" y="194" width="11" height="10" rx="2" fill="#283a46"/><path d="M239 192v14M245 192v14" stroke="#93a9b6" opacity=".6"/><rect x="56" y="227" width="208" height="34" rx="5" fill="#111c25" stroke="#283a46"/><circle class="led led0" cx="75" cy="244" r="4" fill="#62f5be"/><rect x="96" y="239" width="11" height="10" rx="2" fill="#283a46"/><rect x="113" y="239" width="11" height="10" rx="2" fill="#283a46"/><rect x="130" y="239" width="11" height="10" rx="2" fill="#283a46"/><rect x="147" y="239" width="11" height="10" rx="2" fill="#283a46"/><rect x="164" y="239" width="11" height="10" rx="2" fill="#283a46"/><rect x="181" y="239" width="11" height="10" rx="2" fill="#283a46"/><rect x="198" y="239" width="11" height="10" rx="2" fill="#283a46"/><path d="M239 237v14M245 237v14" stroke="#93a9b6" opacity=".6"/><rect x="56" y="272" width="208" height="34" rx="5" fill="#111c25" stroke="#283a46"/><circle class="led led1" cx="75" cy="289" r="4" fill="#62f5be"/><rect x="96" y="284" width="11" height="10" rx="2" fill="#283a46"/><rect x="113" y="284" width="11" height="10" rx="2" fill="#283a46"/><rect x="130" y="284" width="11" height="10" rx="2" fill="#283a46"/><rect x="147" y="284" width="11" height="10" rx="2" fill="#283a46"/><rect x="164" y="284" width="11" height="10" rx="2" fill="#283a46"/><rect x="181" y="284" width="11" height="10" rx="2" fill="#283a46"/><rect x="198" y="284" width="11" height="10" rx="2" fill="#283a46"/><path d="M239 282v14M245 282v14" stroke="#93a9b6" opacity=".6"/>
<path d="M66 341v13M254 341v13" stroke="#283a46" stroke-width="6"/>
<text x="160" y="382" text-anchor="middle" fill="#93a9b6" font-size="12">one more container, surely.</text>
<text x="320" y="97" fill="#62f5be" font-size="20" font-weight="bold">storm@alfast</text><path d="M320 114H953" stroke="#283a46"/>
<text x="320" y="146" font-size="16" fill="#62f5be">base</text><text x="465" y="146" font-size="16" fill="#e6edf3">Copenhagen, Denmark</text><text x="320" y="179" font-size="16" fill="#62f5be">building</text><text x="465" y="179" font-size="16" fill="#e6edf3">SALFAST / apps / websites</text><text x="320" y="212" font-size="16" fill="#62f5be">systems</text><text x="465" y="212" font-size="16" fill="#e6edf3">Linux / Debian / Proxmox</text><text x="320" y="245" font-size="16" fill="#62f5be">containers</text><text x="465" y="245" font-size="16" fill="#e6edf3">Docker / LXC</text><text x="320" y="278" font-size="16" fill="#62f5be">exploring</text><text x="465" y="278" font-size="16" fill="#e6edf3">AI agents / automation</text><text x="320" y="311" font-size="16" fill="#62f5be">off-screen</text><text x="465" y="311" font-size="16" fill="#e6edf3">Food / design / Minecraft</text>
<rect x="320" y="335" width="28" height="15" rx="3" fill="#62f5be"/><rect x="354" y="335" width="28" height="15" rx="3" fill="#64b5f6"/><rect x="388" y="335" width="28" height="15" rx="3" fill="#b69bff"/><rect x="422" y="335" width="28" height="15" rx="3" fill="#ffba7a"/><rect x="456" y="335" width="28" height="15" rx="3" fill="#ff7e92"/><rect x="490" y="335" width="28" height="15" rx="3" fill="#e6edf3"/>
<text x="320" y="383" fill="#93a9b6" font-size="14">$ curious by default</text><rect class="cursor" x="498" y="370" width="8" height="15" fill="#62f5be"/>
</g></svg>